<?xml version="1.0" encoding="utf-8"?>
<!-- Generator: Adobe Illustrator 25.0.0, SVG Export Plug-In . SVG Version: 6.00 Build 0)  -->
<svg version="1.1" id="Layer_1" xmlns="http://www.w3.org/2000/svg" xmlns:xlink="http://www.w3.org/1999/xlink" x="0px" y="0px"
	 viewBox="0 0 160 50" style="enable-background:new 0 0 160 50;" xml:space="preserve">
<style type="text/css">
	.st0{fill:#BCE4FA;}
	.st1{fill:#009FE3;}
	.st2{fill:#5BC5F2;}
	.st3{fill:#323E48;}
</style>
<g>
	<g>
		<path class="st0" d="M42.8,30.4l-14.5-7.2c-0.3-0.1-0.5-0.2-0.8-0.2c-0.3,0-0.5,0.1-0.8,0.2l-14.5,7.2l14.5,7.2
			c0.3,0.1,0.5,0.2,0.8,0.2s0.5-0.1,0.8-0.2L42.8,30.4z"/>
		<path class="st1" d="M49.5,32.1c0,0.7-0.4,1.3-1,1.7l-20.2,10c-0.3,0.1-0.5,0.2-0.8,0.2c-0.3,0-0.5-0.1-0.8-0.2l-20.2-10
			c-0.7-0.3-1-1-1-1.7V17.9c0-0.7,0.4-1.3,1-1.7l20.2-10c0.3-0.1,0.5-0.2,0.8-0.2c0.3,0,0.5,0.1,0.8,0.2l20.2,10
			c0.5,0.3,0.9,0.8,1,1.3L38.7,23l-10.4-5.1c-0.3-0.1-0.5-0.2-0.8-0.2c-0.3,0-0.5,0.1-0.8,0.2L12.2,25l14.5,7.2
			c0.3,0.1,0.5,0.2,0.8,0.2c0.3,0,0.5-0.1,0.8-0.2l8.3-4.1l12.9-6.4V32.1z M54,12.9L28.3,0.2C28,0.1,27.8,0,27.5,0
			c-0.3,0-0.5,0.1-0.8,0.2L1,12.9c-0.7,0.3-1,1-1,1.7v20.9c0,0.7,0.4,1.3,1,1.7l25.7,12.7c0.3,0.1,0.5,0.2,0.8,0.2
			c0.3,0,0.5-0.1,0.8-0.2L54,37.1c0.7-0.3,1-1,1-1.7V14.6C55,13.9,54.6,13.2,54,12.9"/>
		<path class="st2" d="M12.2,19.6l14.5,7.2c0.3,0.1,0.5,0.2,0.8,0.2c0.3,0,0.5-0.1,0.8-0.2l14.5-7.2l-14.5-7.2
			c-0.3-0.1-0.5-0.2-0.8-0.2c-0.3,0-0.5,0.1-0.8,0.2L12.2,19.6z"/>
		<path class="st1" d="M104,35.8c-1,0.3-2.3,0.5-4,0.8c-1.6,0.3-3.4,0.4-5.4,0.4c-1.8,0-3.4-0.3-4.6-0.8c-1.2-0.5-2.2-1.3-3-2.2
			c-0.7-0.9-1.3-2-1.6-3.3C85.1,29.4,85,28,85,26.4V13h5.3v12.5c0,2.4,0.4,4.2,1.1,5.2c0.7,1.1,2,1.6,3.7,1.6c0.6,0,1.3,0,2-0.1
			c0.7-0.1,1.2-0.1,1.6-0.2V13h5.3V35.8z"/>
		<path class="st1" d="M124.2,24.9c0-2.2-0.4-4-1.3-5.3c-0.9-1.3-2.3-2-4.2-2c-0.9,0-1.7,0.1-2.5,0.4c-0.8,0.3-1.4,0.6-1.9,0.9v13.2
			c0.4,0.1,0.9,0.2,1.5,0.2c0.6,0.1,1.3,0.1,2.2,0.1c2,0,3.5-0.7,4.6-2C123.6,29.1,124.2,27.3,124.2,24.9 M129.6,25
			c0,1.8-0.3,3.5-0.8,5c-0.5,1.5-1.3,2.7-2.3,3.8c-1,1-2.2,1.9-3.7,2.4c-1.4,0.6-3,0.8-4.9,0.8c-1.7,0-3.4-0.1-5-0.4
			c-1.6-0.3-2.9-0.6-4-0.9V1.7h5.3v12.7c0.6-0.3,1.4-0.6,2.3-0.9c0.9-0.3,1.9-0.4,3-0.4c1.6,0,3,0.3,4.3,0.9
			c1.3,0.6,2.3,1.4,3.2,2.4c0.8,1,1.5,2.3,1.9,3.8C129.4,21.6,129.6,23.2,129.6,25"/>
	</g>
	<rect x="133.4" y="13" class="st1" width="5.3" height="24"/>
	<path class="st1" d="M157,32.2c-0.9,0.2-1.8,0.3-2.7,0.3c-2.4,0-4.1-0.7-5.2-2c-1-1.3-1.5-3.1-1.5-5.4c0,0,0,0,0,0v0v0c0,0,0,0,0,0
		c0-2.3,0.5-4.1,1.5-5.4c1-1.3,2.7-2,5.2-2c0.9,0,1.8,0.1,2.7,0.3c0.9,0.2,1.6,0.4,2.3,0.7l0.7-4.4c-0.6-0.3-1.5-0.6-2.6-0.8
		c-1.2-0.2-2.4-0.4-3.7-0.4c-2,0-3.6,0.3-5.1,0.9c-1.4,0.6-2.6,1.4-3.6,2.5c-0.9,1.1-1.7,2.3-2.1,3.8c-0.5,1.5-0.7,3.1-0.7,4.8
		c0,0,0,0,0,0c0,0,0,0,0,0c0,1.7,0.2,3.3,0.7,4.8c0.5,1.5,1.2,2.7,2.1,3.8c0.9,1.1,2.1,1.9,3.6,2.5c1.4,0.6,3.1,0.9,5.1,0.9
		c1.3,0,2.5-0.1,3.7-0.3c1.2-0.2,2.1-0.5,2.6-0.8l-0.7-4.4C158.6,31.8,157.9,32,157,32.2"/>
	<path class="st1" d="M78.8,32.2c-0.9,0.2-1.8,0.3-2.7,0.3c-2.4,0-4.1-0.7-5.2-2c-1-1.3-1.5-3.1-1.5-5.4c0,0,0,0,0,0v0v0
		c0,0,0,0,0,0c0-2.3,0.5-4.1,1.5-5.4c1-1.3,2.7-2,5.2-2c0.9,0,1.8,0.1,2.7,0.3c0.9,0.2,1.6,0.4,2.3,0.7l0.7-4.4
		c-0.6-0.3-1.5-0.6-2.6-0.8C78,13.1,76.8,13,75.5,13c-2,0-3.6,0.3-5.1,0.9c-1.4,0.6-2.6,1.4-3.6,2.5c-0.9,1.1-1.7,2.3-2.1,3.8
		C64.2,21.7,64,23.3,64,25c0,0,0,0,0,0c0,0,0,0,0,0c0,1.7,0.2,3.3,0.7,4.8c0.5,1.5,1.2,2.7,2.1,3.8c0.9,1.1,2.1,1.9,3.6,2.5
		c1.4,0.6,3.1,0.9,5.1,0.9c1.3,0,2.5-0.1,3.6-0.3c1.2-0.2,2.1-0.5,2.6-0.8l-0.7-4.4C80.4,31.8,79.7,32,78.8,32.2"/>
	<path class="st3" d="M64.8,42.3c0,0.1,0,0.2-0.1,0.3c-0.1,0.1-0.2,0.1-0.3,0.1c-0.1,0-0.2,0-0.3-0.1C64,42.6,64,42.5,64,42.3
		c0-0.1,0-0.2,0.1-0.3c0.1-0.1,0.2-0.1,0.3-0.1c0.1,0,0.2,0,0.3,0.1C64.8,42.1,64.8,42.2,64.8,42.3"/>
	<path class="st3" d="M107.7,42.3c0,0.1,0,0.2-0.1,0.3c-0.1,0.1-0.2,0.1-0.3,0.1c-0.1,0-0.2,0-0.3-0.1c-0.1-0.1-0.1-0.2-0.1-0.3
		c0-0.1,0-0.2,0.1-0.3c0.1-0.1,0.2-0.1,0.3-0.1c0.1,0,0.2,0,0.3,0.1C107.7,42.1,107.7,42.2,107.7,42.3"/>
</g>
</svg>
